<?xml version="1.0" standalone="no"?>
<!DOCTYPE svg PUBLIC "-//W3C//DTD SVG 20010904//EN"
 "http://www.w3.org/TR/2001/REC-SVG-20010904/DTD/svg10.dtd">
<svg version="1.0" xmlns="http://www.w3.org/2000/svg"
 width="5100.000000pt" height="3300.000000pt" viewBox="0 0 5100.000000 3300.000000"
 preserveAspectRatio="xMidYMid meet">

<g transform="translate(0.000000,3300.000000) scale(0.100000,-0.100000)"
fill="#000000" stroke="none">
<path d="M25145 21829 c-818 -44 -1756 -252 -2243 -498 -628 -316 -1120 -874
-1263 -1433 -78 -309 -60 -681 51 -1003 302 -881 711 -1782 1137 -2505 108
-182 405 -631 416 -627 18 6 587 972 616 1045 48 125 64 228 58 361 -5 120
-23 192 -82 346 -34 87 -38 211 -10 290 12 35 14 50 6 53 -27 9 -177 145 -193
175 -35 63 -16 120 63 191 75 68 108 86 154 86 57 0 89 -25 152 -121 31 -46
57 -86 59 -88 2 -2 58 45 125 105 l121 108 -29 26 c-16 14 -52 45 -81 70 -63
54 -87 108 -71 162 11 43 121 152 175 174 77 32 131 1 210 -121 27 -41 52 -75
56 -75 8 0 232 197 236 208 1 4 -32 36 -73 71 -83 70 -105 102 -105 156 0 51
20 82 86 140 77 67 91 74 146 75 60 0 88 -23 158 -130 l52 -80 47 40 c25 21
70 61 100 88 l54 48 -75 64 c-90 78 -108 104 -108 162 1 56 12 75 89 143 128
114 191 104 292 -47 33 -49 65 -86 70 -82 19 11 224 196 227 204 1 4 -28 33
-65 64 -87 73 -113 110 -113 159 0 55 20 87 100 155 82 69 118 81 179 56 33
-13 52 -33 104 -109 l63 -93 121 107 122 106 -57 50 c-93 81 -121 114 -128
150 -10 55 12 99 79 161 81 73 110 87 164 81 54 -6 79 -28 146 -127 27 -41 51
-76 52 -78 1 -1 24 10 50 25 37 20 62 26 106 26 50 0 71 -7 156 -50 120 -62
199 -88 324 -107 108 -16 161 -39 215 -93 70 -70 100 -190 71 -284 -8 -26 -69
-133 -136 -238 -584 -917 -1013 -1764 -1176 -2321 -20 -69 -50 -153 -67 -187
-51 -104 -157 -212 -258 -263 -71 -36 -154 -95 -279 -200 -192 -161 -314 -291
-419 -446 -41 -62 -834 -1485 -830 -1489 2 -2 49 -32 105 -69 1017 -658 2073
-368 3087 849 671 805 1324 2027 1826 3415 44 121 83 292 101 433 16 134 6
402 -20 529 -59 288 -196 559 -418 823 -355 424 -796 709 -1360 878 -798 241
-1672 349 -2468 306z"/>
<path d="M26805 19753 c-11 -3 -32 -17 -47 -31 -23 -21 -28 -34 -28 -72 0 -62
39 -103 98 -103 l40 0 -33 -56 c-18 -31 -629 -1089 -1357 -2351 -729 -1262
-1362 -2359 -1408 -2438 -58 -100 -80 -146 -72 -154 7 -7 15 -3 25 13 8 13
252 436 542 939 291 503 939 1627 1441 2496 502 870 917 1597 922 1617 5 19 7
46 5 61 -6 28 -48 76 -69 76 -7 0 -18 2 -26 4 -7 2 -22 1 -33 -1z"/>
<path d="M26334 19350 c-36 -14 -64 -59 -64 -102 0 -48 43 -98 84 -98 14 0 26
-4 26 -9 0 -8 -630 -1101 -2191 -3803 -225 -390 -409 -712 -409 -717 0 -5 6
-11 14 -14 10 -4 36 33 87 121 40 70 633 1097 1318 2282 684 1185 1253 2171
1263 2190 10 19 18 43 18 53 0 34 -31 79 -65 93 -39 16 -51 16 -81 4z"/>
<path d="M25804 18856 c-26 -26 -34 -42 -34 -69 0 -43 39 -93 80 -104 l29 -8
-1143 -1980 c-1031 -1786 -1141 -1981 -1124 -1989 11 -6 22 -6 27 0 5 5 525
905 1156 1999 631 1095 1156 2002 1166 2017 35 49 18 127 -32 154 -48 24 -87
18 -125 -20z"/>
<path d="M25344 18439 c-34 -17 -57 -66 -51 -106 6 -36 41 -83 61 -83 6 0 17
-4 24 -8 12 -8 -414 -754 -1771 -3103 -97 -168 -177 -313 -177 -322 0 -9 8
-21 18 -26 15 -8 34 20 141 207 552 962 1895 3289 1902 3297 5 5 9 29 9 53 0
80 -81 127 -156 91z"/>
<path d="M24827 17979 c-22 -13 -47 -61 -47 -91 0 -35 36 -87 65 -94 14 -3 25
-8 25 -10 0 -4 -887 -1538 -1497 -2589 -76 -130 -132 -239 -131 -250 2 -13 11
-20 25 -20 19 0 137 197 819 1375 437 756 821 1417 851 1468 50 84 55 97 50
135 -8 56 -43 87 -100 87 -23 0 -50 -5 -60 -11z"/>
<path d="M24315 17473 c-11 -3 -32 -17 -47 -31 -22 -21 -28 -35 -28 -70 0 -38
5 -50 35 -78 l36 -33 -483 -838 c-858 -1493 -771 -1334 -749 -1357 11 -10 25
-16 33 -14 7 3 72 108 144 234 73 126 355 618 629 1094 273 476 510 884 527
908 50 71 38 145 -27 177 -34 16 -37 16 -70 8z"/>
</g>
</svg>
